<svg width="50" height="50" viewBox="0 0 50 50" fill="none" xmlns="http://www.w3.org/2000/svg">
<rect width="50" height="50" rx="10" fill="#FAFBFC"/>
<path fill-rule="evenodd" clip-rule="evenodd" d="M25 40C17.268 40 11 33.732 11 26C11 18.268 17.268 12 25 12C32.732 12 39 18.268 39 26C38.9893 33.728 32.7273 39.9897 24.9996 40L25 40ZM36.807 27.916C34.3898 27.2131 31.8496 27.0388 29.359 27.405C30.3755 30.1755 31.153 33.0279 31.683 35.931C34.4239 34.0804 36.2791 31.1803 36.81 27.916L36.807 27.916ZM29.673 37.025C29.1099 33.9294 28.2544 30.8941 27.118 27.96L27.041 27.983C20.286 30.334 17.871 35.012 17.661 35.45C21.0774 38.1169 25.6716 38.7207 29.661 37.027L29.673 37.025ZM16.116 34.015C18.3691 30.3592 21.7964 27.5764 25.837 26.122C25.994 26.07 26.152 26.022 26.309 25.982C26.009 25.3 25.679 24.621 25.338 23.952C21.342 25.0953 17.2043 25.6676 13.048 25.652L13.048 26.016C13.0451 28.9708 14.1401 31.8219 16.1206 34.0156L16.116 34.015ZM13.292 23.568C17.0242 23.5493 20.7392 23.0601 24.349 22.112C22.9963 19.7301 21.5165 17.4227 19.9159 15.1998C16.5211 16.7982 14.0705 19.8939 13.294 23.565L13.292 23.568ZM22.2 14.394C23.8367 16.6281 25.3262 18.9664 26.659 21.394C29.1199 20.586 31.2962 19.0866 32.928 17.075C30.0077 14.4767 25.9999 13.4736 22.2 14.39L22.2 14.394ZM34.257 18.457C32.477 20.5801 30.1758 22.2042 27.579 23.17C27.859 23.742 28.127 24.319 28.372 24.904C28.465 25.114 28.547 25.324 28.629 25.522C31.4093 25.2338 34.2171 25.3636 36.959 25.907C36.9416 23.1903 35.9901 20.5622 34.2641 18.4641L34.257 18.457Z" fill="#B0B7C3"/>
</svg>
