<svg width="24" height="24" viewBox="0 0 24 24" fill="none" xmlns="http://www.w3.org/2000/svg">
<path fill-rule="evenodd" clip-rule="evenodd" d="M11.9998 0.00293192C6.11586 0.00358155 1.10035 4.27026 0.156491 10.078C-0.787366 15.8857 2.61888 21.521 8.19977 23.3849C8.79976 23.4979 9.01976 23.1269 9.01976 22.8079C9.01976 22.5229 9.00976 21.7679 9.00476 20.7679C5.66676 21.4919 4.96276 19.1579 4.96276 19.1579C4.7425 18.4332 4.27089 17.8109 3.63276 17.4029C2.54576 16.6589 3.71676 16.6739 3.71676 16.6739C4.48758 16.7796 5.16616 17.2359 5.55476 17.9099C5.88299 18.5087 6.43709 18.9514 7.0936 19.1392C7.75011 19.327 8.45448 19.2445 9.04976 18.9099C9.10446 18.3031 9.37396 17.7357 9.80976 17.3099C7.14476 17.0099 4.34376 15.9779 4.34376 11.3799C4.3236 10.1852 4.76612 9.02892 5.57877 8.15292C5.20356 7.12022 5.24117 5.98259 5.68376 4.97693C5.68376 4.97693 6.68876 4.65493 8.98376 6.20693C10.9473 5.66695 13.0202 5.66695 14.9838 6.20693C17.2638 4.65493 18.2688 4.97693 18.2688 4.97693C18.7045 5.98334 18.7473 7.11651 18.3888 8.15293C19.1963 9.02895 19.6366 10.1816 19.6188 11.3729C19.6188 15.9829 16.8138 16.9979 14.1438 17.2929C14.7197 17.8825 15.0147 18.691 14.9538 19.5129C14.9538 21.1189 14.9388 22.4129 14.9388 22.7989C14.9388 23.1139 15.1488 23.4889 15.7638 23.3689C21.3532 21.5239 24.7756 15.8931 23.8395 10.0819C22.9034 4.27065 17.8859 -0.00063768 11.9998 0.00293192Z" fill="#377DFF"/>
</svg>
