<svg width="184" height="42" viewBox="0 0 184 42" fill="none" xmlns="http://www.w3.org/2000/svg">
<path d="M21.4485 0C8.7104 0 0 7.98 0 21.1134C0 33.6525 8.7104 42 21.4485 42C34.1867 42 42.6667 33.6525 42.6667 21.1134C42.6667 7.98 34.1867 0 21.4485 0ZM34.1184 33.5853C33.2881 34.3992 32.3621 35.1127 31.36 35.7105V18.48L27.52 16.38V37.38C26.1304 37.7877 24.6997 38.0448 23.2533 38.1465V10.5315L19.4133 8.4315V38.1339C18.0401 38.0223 16.682 37.7732 15.36 37.3905V17.64L11.52 19.74V35.7399C6.6752 32.8986 3.84 27.7599 3.84 21.105C3.84 15.7647 5.4976 11.3442 8.63573 8.3202C11.7205 5.3529 16.1515 3.78 21.4485 3.78C26.7456 3.78 31.1019 5.3466 34.1333 8.3076C37.2075 11.319 38.8267 15.7479 38.8267 21.1176C38.8267 26.25 37.1989 30.555 34.1184 33.5853Z" fill="#B0B7C3"/>
<path d="M53.5809 31.66C53.8775 33.8482 55.6204 35.4883 58.1015 35.4883C61.5148 35.4883 63.2215 33.7747 63.2215 30.1648V28.3042C62.4428 29.6902 60.6273 30.8935 57.9969 30.8935C53.1799 30.8935 49.662 27.2479 49.662 22.252C49.662 17.5102 53.0327 13.6084 57.9969 13.6084C60.8129 13.6084 62.5537 14.7382 63.3303 16.1977V13.936H67.4795V30.0178C67.4795 34.7596 64.9964 39.1717 58.2167 39.1717C53.438 39.1717 50.11 36.2548 49.6215 32.6806L53.5809 31.66ZM63.326 22.2604C63.326 19.2322 61.3612 17.2624 58.6945 17.2624C55.9532 17.2624 53.9884 19.2322 53.9884 22.2604C53.9884 25.36 55.8785 27.3004 58.6945 27.3004C61.4401 27.2836 63.326 25.3138 63.326 22.2604Z" fill="#B0B7C3"/>
<path d="M90.0265 22.7976C90.0265 28.2681 86.0628 32.2476 80.6548 32.2476C75.2831 32.2476 71.3172 28.2723 71.3172 22.7976C71.3172 17.3628 75.2831 13.3896 80.6548 13.3896C86.0713 13.3896 90.0265 17.3628 90.0265 22.7976ZM85.6916 22.7976C85.7001 19.11 83.33 17.22 80.6633 17.22C78.0329 17.22 75.6244 19.11 75.6244 22.7997C75.6244 26.4894 78.0329 28.4529 80.6633 28.4529C83.33 28.4508 85.7001 26.5167 85.7001 22.7976H85.6916Z" fill="#B0B7C3"/>
<path d="M94.1845 31.6948V5.2915H98.4812V31.6948H94.1845Z" fill="#B0B7C3"/>
<path d="M120.71 28.4502C120.71 29.5344 120.772 30.6176 120.896 31.6947H116.783C116.67 30.9338 116.608 30.1663 116.597 29.3973C115.744 30.8925 113.856 32.1273 111.3 32.1273C106.114 32.1273 102.63 28.1142 102.63 22.755C102.63 17.6478 106.15 13.4542 111.226 13.4542C114.374 13.4542 115.968 14.8779 116.525 16.0077V5.2915H120.71V28.4502ZM111.787 28.4124C114.601 28.4124 116.565 26.115 116.565 22.7235C116.565 19.332 114.635 17.2195 111.819 17.2195C109.003 17.2195 106.929 19.372 106.929 22.7635C106.929 26.1549 108.855 28.4124 111.787 28.4124Z" fill="#B0B7C3"/>
<path d="M126.34 31.6948V5.2915H130.639V31.6948H126.34Z" fill="#B0B7C3"/>
<path d="M138.307 4.92822C138.676 4.92795 139.041 4.9994 139.384 5.13847C139.725 5.27755 140.036 5.48153 140.297 5.73877C140.559 5.99601 140.767 6.30145 140.908 6.63765C141.049 6.97385 141.123 7.33421 141.123 7.69812C141.119 8.24111 140.952 8.77097 140.644 9.2211C140.335 9.67121 139.899 10.0215 139.388 10.2278C138.877 10.4342 138.317 10.4874 137.776 10.3808C137.236 10.2742 136.739 10.0125 136.348 9.62873C135.959 9.24493 135.692 8.75612 135.583 8.22378C135.475 7.69144 135.528 7.13935 135.737 6.63694C135.947 6.13453 136.303 5.70425 136.759 5.40021C137.216 5.09618 137.755 4.93196 138.307 4.92822ZM136.195 31.6949V13.9351H140.461V31.6949H136.195Z" fill="#B0B7C3"/>
<path d="M150.311 31.6948H146.012V13.9351H150.2V16.306C151.384 14.2627 153.535 13.4248 155.533 13.4248C159.943 13.4248 162.055 16.5601 162.055 20.464V31.6948H157.756V21.1948C157.756 19.0066 156.756 17.2552 154.052 17.2552C151.608 17.2552 150.311 19.1158 150.311 21.4552V31.6948Z" fill="#B0B7C3"/>
<path d="M183.253 26.6259C182.289 29.7276 179.437 32.2434 175.101 32.2434C170.212 32.2434 165.877 28.7427 165.877 22.7241C165.877 17.1087 170.101 13.3896 174.659 13.3896C180.207 13.3896 183.467 17.01 183.467 22.6149C183.479 23.0676 183.441 23.5203 183.356 23.9652H170.168C170.279 26.6637 172.427 28.5852 175.093 28.5852C177.688 28.5852 179.021 27.237 179.613 25.4856L183.253 26.6259ZM179.132 20.8656C179.057 18.7866 177.651 16.926 174.685 16.926C173.579 16.9036 172.505 17.2993 171.685 18.0321C170.865 18.7647 170.363 19.7788 170.279 20.8656H179.132Z" fill="#B0B7C3"/>
</svg>
