<svg width="21" height="21" viewBox="0 0 21 21" fill="none" xmlns="http://www.w3.org/2000/svg">
<path fill-rule="evenodd" clip-rule="evenodd" d="M2.28113 11.747L16.6261 11.747L10.3531 18.023C10.1078 18.2566 9.9689 18.5807 9.9689 18.9195C9.9689 19.2583 10.1078 19.5823 10.3531 19.816C10.5868 20.0613 10.9108 20.2002 11.2496 20.2002C11.5884 20.2002 11.9125 20.0613 12.1461 19.816L20.4691 11.491C20.9823 10.9044 20.9823 10.0286 20.4691 9.44197L12.1441 1.11697C11.9105 0.871613 11.5865 0.732746 11.2476 0.732746C10.9088 0.732746 10.5848 0.871613 10.3511 1.11697H10.3511C10.1058 1.35064 9.9669 1.67465 9.9669 2.01347C9.9669 2.35229 10.1058 2.67631 10.3511 2.90997L16.6261 9.18497L2.28113 9.18497C1.93539 9.16401 1.59724 9.29223 1.35231 9.53715C1.10739 9.78208 0.979168 10.1202 1.00013 10.466C0.979168 10.8117 1.10739 11.1499 1.35231 11.3948C1.59724 11.6397 1.93538 11.7679 2.28113 11.747Z" fill="#377DFF"/>
</svg>
