<svg width="153" height="42" viewBox="0 0 153 42" fill="none" xmlns="http://www.w3.org/2000/svg">
<g clip-path="url(#clip0)">
<path d="M13.789 16.5245C13.1726 15.2504 12.8979 13.8392 12.9913 12.428C13.0847 11.0169 13.5433 9.65378 14.3223 8.47101C15.1012 7.28822 16.1743 6.32595 17.4374 5.6776C18.7003 5.02924 20.1103 4.71684 21.5304 4.7707C22.9505 4.82457 24.3325 5.24286 25.5423 5.985C26.7521 6.72715 27.7484 7.76791 28.4347 9.00627C29.1209 10.2446 29.4739 11.6385 29.459 13.0526C29.4442 14.4667 29.0623 15.8531 28.3504 17.0768L21.6986 28.5596L23.6928 31.9973L31.3492 18.8009C32.8603 16.1299 33.2516 12.9735 32.4384 10.0171C31.625 7.06057 29.6726 4.54266 27.005 3.00993C24.3374 1.47721 21.1699 1.05341 18.1901 1.83053C15.2104 2.60766 12.659 4.52299 11.0898 7.1607C10.2564 8.57781 9.73751 10.156 9.56789 11.7892C9.39826 13.4225 9.58189 15.0728 10.1064 16.6295C10.6398 16.5631 11.1769 16.5295 11.7145 16.5287L13.789 16.5245Z" fill="#B0B7C3"/>
<path d="M40.6222 23.203C39.7954 21.7588 38.664 20.5099 37.3059 19.5423C35.9478 18.5748 34.3951 17.9114 32.7548 17.5981C32.5465 18.0934 32.3077 18.5752 32.0394 19.0408L30.9969 20.8363C32.4196 20.9234 33.7955 21.376 34.9899 22.1502C36.1844 22.9243 37.1567 23.9934 37.812 25.2532C38.4672 26.5129 38.783 27.9202 38.7284 29.3377C38.6738 30.7552 38.2507 32.1342 37.5004 33.3404C36.7503 34.5466 35.6986 35.5386 34.4481 36.2194C33.1976 36.9003 31.7909 37.2468 30.3656 37.2251C28.9403 37.2035 27.545 36.8145 26.3159 36.0959C25.0869 35.3774 24.066 34.3539 23.3532 33.1255L16.712 21.6805H12.7255L20.3607 34.8433C20.6232 35.2926 20.9143 35.7247 21.2323 36.1369L21.2956 36.2188C22.383 37.6117 23.7779 38.737 25.3723 39.5074C26.9666 40.278 28.7178 40.6732 30.4904 40.6624C32.5435 40.6622 34.5605 40.1242 36.3384 39.1025C38.1164 38.0809 39.5928 36.6115 40.6194 34.8422C41.6459 33.0729 42.1865 31.0658 42.1866 29.0227C42.1867 26.9796 41.6463 24.9726 40.6201 23.203H40.6222Z" fill="#B0B7C3"/>
<path d="M18.6027 33.5287C17.8304 34.6985 16.7703 35.6521 15.523 36.2989C14.2757 36.9456 12.8828 37.2639 11.4769 37.2236C10.071 37.1832 8.69888 36.7854 7.49118 36.0679C6.28347 35.3507 5.28036 34.3377 4.57734 33.1255C3.85407 31.8784 3.47331 30.4641 3.47331 29.0243C3.4733 27.5845 3.85403 26.17 4.57727 24.923C5.30051 23.676 6.34078 22.6403 7.59359 21.92C8.84641 21.1997 10.2676 20.8202 11.7145 20.8195H25.0245L27.0124 17.3839H11.7145C10.1653 17.3632 8.62734 17.649 7.19001 18.2246C5.75267 18.8002 4.44457 19.6542 3.34167 20.7372C2.23875 21.82 1.36301 23.11 0.765287 24.5325C0.167562 25.955 -0.140236 27.4813 -0.140236 29.0231C-0.140236 30.5649 0.167562 32.0913 0.765287 33.5138C1.36301 34.9362 2.23875 36.2264 3.34167 37.3092C4.44457 38.392 5.75267 39.246 7.19001 39.8217C8.62734 40.3974 10.1653 40.6831 11.7145 40.6624C13.3903 40.6722 15.0479 40.3193 16.5731 39.6281C18.0981 38.9369 19.4538 37.9242 20.5463 36.6598C20.205 36.221 19.8933 35.7602 19.6135 35.2801L18.6027 33.5287Z" fill="#B0B7C3"/>
<path d="M49.306 35.7V5.73291H52.7754V24.5553L62.7932 14.9583H67.3853L57.4667 24.4608L67.6807 35.7H62.905L52.7754 24.57V35.7H49.306Z" fill="#B0B7C3"/>
<path d="M83.4684 31.0523C82.4104 32.7785 81.1379 34.0792 79.6507 34.9541C78.1637 35.8291 76.7969 36.2666 75.5503 36.2666C73.8101 36.2666 72.2463 35.5183 70.8591 34.0217C69.4719 32.5252 68.7783 30.2543 68.7783 27.2093C68.7783 24.8098 69.2391 22.6657 70.1605 20.777C70.9919 18.997 72.2659 17.4574 73.8621 16.304C75.4097 15.2078 77.3209 14.6597 79.5959 14.6597C80.2543 14.6597 81.2476 14.7298 82.5757 14.8697C82.7762 14.8949 83.0737 14.9243 83.4705 14.9621H86.9462V29.6096C86.9462 32.1115 87.2136 34.1414 87.7481 35.6996H84.1352C83.796 34.1693 83.5731 32.6159 83.4684 31.0523ZM83.481 26.9237V18.0218C82.3608 17.714 81.2054 17.5508 80.0433 17.5367C77.9006 17.5367 76.1159 18.3613 74.6893 20.0105C73.2627 21.6598 72.5494 23.8997 72.5494 26.7305C72.5494 28.7885 72.9392 30.3404 73.7186 31.3862C74.4981 32.432 75.3857 32.9599 76.3818 32.9696C77.4638 32.9696 78.6597 32.4244 79.9694 31.3337C81.2793 30.2431 82.4499 28.7731 83.481 26.9237Z" fill="#B0B7C3"/>
<path d="M91.1669 35.6997V14.958H94.6363V19.4877C95.5389 17.985 96.7693 16.7032 98.2366 15.7371C99.6435 14.8341 101.05 14.3826 102.457 14.3826C103.649 14.3711 104.817 14.7101 105.815 15.357C106.778 15.9571 107.519 16.8526 107.925 17.9085C108.329 18.9614 108.531 21.0285 108.531 24.1098V35.6997H105.066V23.6814C105.066 21.6906 104.969 20.376 104.777 19.7376C104.596 19.1188 104.228 18.5707 103.721 18.1689C103.247 17.7761 102.65 17.5593 102.033 17.5557C100.813 17.5557 99.5042 18.1311 98.1057 19.2819C96.6715 20.4772 95.495 21.9486 94.6469 23.6079V35.6997H91.1669Z" fill="#B0B7C3"/>
<path d="M115.774 19.6203C116.843 17.88 118.117 16.5738 119.597 15.7017C121.078 14.8294 122.439 14.3898 123.683 14.3829C125.425 14.3829 126.991 15.1311 128.383 16.6278C129.774 18.1243 130.471 20.3952 130.472 23.4402C130.472 25.8426 130.009 27.9867 129.083 29.8725C128.248 31.6506 126.974 33.1895 125.38 34.3455C123.839 35.4417 121.931 35.9898 119.654 35.9898C119.006 35.9898 118.01 35.9197 116.668 35.7798C116.47 35.7567 116.172 35.7252 115.774 35.6874H112.304V5.73291H115.774V19.6203ZM115.774 23.7258V32.6298C116.905 32.9345 118.071 33.0968 119.243 33.1128C121.345 33.1128 123.114 32.2917 124.55 30.6495C125.987 29.0073 126.705 26.7616 126.705 23.9127C126.705 21.8434 126.313 20.2887 125.53 19.2486C124.746 18.2083 123.857 17.6875 122.862 17.6862C121.779 17.6862 120.588 18.2314 119.289 19.3221C117.991 20.4126 116.819 21.882 115.774 23.73V23.7258Z" fill="#B0B7C3"/>
<path d="M147.658 31.0524C146.6 32.7786 145.329 34.0792 143.844 34.9542C142.357 35.8291 140.992 36.2667 139.747 36.2667C138.007 36.2667 136.446 35.5177 135.062 34.0197C133.678 32.5216 132.986 30.2509 132.983 27.2073C132.983 24.8077 133.444 22.6636 134.363 20.775C135.195 18.9954 136.468 17.456 138.063 16.302C139.61 15.2058 141.521 14.6577 143.795 14.6577C144.456 14.6577 145.45 14.7277 146.777 14.8677C146.975 14.8929 147.273 14.9223 147.671 14.9601H151.143V29.6097C151.143 32.1115 151.411 34.1415 151.945 35.6997H148.326C147.988 34.1692 147.765 32.6159 147.658 31.0524ZM147.674 26.9238V18.0219C146.553 17.7143 145.398 17.5513 144.236 17.5368C142.092 17.5368 140.306 18.3613 138.882 20.0106C137.456 21.6598 136.744 23.8998 136.742 26.7306C136.742 28.7886 137.132 30.3405 137.911 31.3863C138.691 32.4321 139.577 32.9599 140.573 32.9697C141.657 32.9697 142.853 32.4244 144.16 31.3338C145.466 30.2431 146.639 28.7731 147.674 26.9238Z" fill="#B0B7C3"/>
</g>
<defs>
<clipPath id="clip0">
<rect width="153" height="42" fill="white"/>
</clipPath>
</defs>
</svg>
