<svg width="160" height="48" viewBox="0 0 160 48" fill="none" xmlns="http://www.w3.org/2000/svg">
<path d="M23.8015 0C10.6566 0 0 10.7451 0 23.9996C0 37.2555 10.6566 48 23.8015 48C36.947 48 47.603 37.2555 47.603 23.9996C47.603 10.7459 36.9476 0.00114548 23.8013 0.00114548L23.8015 0ZM34.7167 34.6143C34.2893 35.3213 33.3757 35.5428 32.6769 35.112C27.0876 31.6676 20.0526 30.8895 11.7676 32.7979C10.9692 32.9824 10.1734 32.4777 9.99151 31.6729C9.80874 30.868 10.307 30.0655 11.1073 29.8821C20.174 27.792 27.9511 28.6916 34.2248 32.5571C34.9239 32.9899 35.1457 33.9099 34.7164 34.6148L34.7167 34.6143ZM37.63 28.0803C37.0917 28.9611 35.9496 29.2373 35.0774 28.6965C28.681 24.7319 18.9273 23.5835 11.36 25.8997C10.3786 26.1985 9.34206 25.6409 9.04419 24.6531C8.7486 23.6635 9.30198 22.6203 10.2817 22.3193C18.9258 19.6747 29.6715 20.9557 37.0186 25.5081C37.8912 26.0499 38.1669 27.202 37.6298 28.0807L37.63 28.0803ZM37.8801 21.2756C30.2079 16.6812 17.5527 16.2588 10.2285 18.5001C9.05242 18.8599 7.80866 18.1904 7.45226 17.0045C7.09584 15.818 7.75921 14.5648 8.93617 14.2043C17.3437 11.6307 31.3203 12.1279 40.1522 17.4145C41.21 18.0476 41.557 19.4253 40.9301 20.4905C40.3048 21.5572 38.9349 21.9089 37.8803 21.2756H37.8801ZM64.7561 22.156C60.6465 21.1677 59.9148 20.4743 59.9148 19.0169C59.9148 17.6401 61.2004 16.7136 63.1121 16.7136C64.9652 16.7136 66.8026 17.4172 68.7291 18.8656C68.7874 18.9095 68.8604 18.9269 68.9324 18.9155C69.0043 18.9045 69.0679 18.8648 69.1101 18.8048L71.1167 15.9527C71.1991 15.8352 71.1766 15.6733 71.0655 15.5836C68.7726 13.7285 66.1908 12.8266 63.1729 12.8266C58.7357 12.8266 55.6362 15.5116 55.6362 19.3533C55.6362 23.4731 58.3099 24.9319 62.9302 26.0579C66.8627 26.9712 67.5263 27.7364 67.5263 29.1043C67.5263 30.6201 66.1843 31.5624 64.0245 31.5624C61.6256 31.5624 59.669 30.7476 57.4803 28.8364C57.426 28.7891 57.3515 28.7676 57.2828 28.7716C57.2103 28.7776 57.1441 28.8115 57.098 28.8673L54.8481 31.5672C54.7537 31.6793 54.7658 31.8467 54.8748 31.9436C57.4215 34.236 60.5535 35.4468 63.9335 35.4468C68.715 35.4468 71.8047 32.8125 71.8047 28.7352C71.8133 25.2932 69.7698 23.3875 64.7646 22.1597L64.7561 22.156ZM82.6221 18.0692C80.5497 18.0692 78.8497 18.8923 77.4479 20.5788V18.6804C77.4479 18.5305 77.3275 18.4085 77.1791 18.4085H73.4992C73.3506 18.4085 73.2304 18.5305 73.2304 18.6804V39.774C73.2304 39.9239 73.3506 40.046 73.4992 40.046H77.1791C77.3275 40.046 77.4479 39.9239 77.4479 39.774V33.1157C78.85 34.7023 80.5502 35.4775 82.6221 35.4775C86.4731 35.4775 90.3714 32.4884 90.3714 26.7743C90.3771 21.0589 86.4776 18.0689 82.6264 18.0689L82.6221 18.0692ZM86.0926 26.7743C86.0926 29.6841 84.315 31.7145 81.7698 31.7145C79.2536 31.7145 77.3555 29.5917 77.3555 26.7743C77.3555 23.9572 79.2536 21.8341 81.7698 21.8341C84.2738 21.8339 86.0928 23.9111 86.0928 26.774L86.0926 26.7743ZM100.363 18.0692C95.4039 18.0692 91.5185 21.9197 91.5185 26.8365C91.5185 31.6996 95.3772 35.5099 100.302 35.5099C105.279 35.5099 109.177 31.6721 109.177 26.7743C109.177 21.8935 105.306 18.0697 100.363 18.0697L100.363 18.0692ZM100.363 31.7435C97.7253 31.7435 95.7367 29.6064 95.7367 26.7729C95.7367 23.9273 97.6566 21.8624 100.302 21.8624C102.957 21.8624 104.959 23.9996 104.959 26.8351C104.959 29.68 103.027 31.7435 100.364 31.7435H100.363ZM119.767 18.4085H115.718V14.234C115.718 14.0844 115.598 13.9624 115.449 13.9624H111.77C111.621 13.9624 111.5 14.0844 111.5 14.234V18.4085H109.731C109.583 18.4085 109.463 18.5305 109.463 18.6805V21.8693C109.463 22.0189 109.583 22.1413 109.731 22.1413H111.5V30.3925C111.5 33.7269 113.146 35.4176 116.392 35.4176C117.712 35.4176 118.807 35.1428 119.839 34.5527C119.923 34.5053 119.975 34.4143 119.975 34.3173V31.2807C119.975 31.1869 119.927 31.0984 119.847 31.0495C119.767 30.9987 119.667 30.9961 119.585 31.0371C118.876 31.3968 118.191 31.5627 117.425 31.5627C116.244 31.5627 115.718 31.0221 115.718 29.8108V22.1428H119.767C119.916 22.1428 120.035 22.0207 120.035 21.8708V18.6823C120.041 18.5323 119.922 18.4103 119.771 18.4103L119.767 18.4085ZM133.876 18.4248V17.9121C133.876 16.4037 134.449 15.7312 135.736 15.7312C136.502 15.7312 137.119 15.8848 137.809 16.1169C137.894 16.1439 137.982 16.1304 138.052 16.0791C138.122 16.0277 138.163 15.9456 138.163 15.8584V12.7317C138.163 12.6122 138.087 12.5065 137.973 12.4712C137.243 12.2525 136.311 12.0281 134.914 12.0281C131.515 12.0281 129.719 13.958 129.719 17.6072V18.3924H127.951C127.803 18.3924 127.681 18.5145 127.681 18.6641V21.8693C127.681 22.0189 127.803 22.1413 127.951 22.1413H129.719V34.8684C129.719 35.0183 129.839 35.1404 129.987 35.1404H133.667C133.816 35.1404 133.937 35.0183 133.937 34.8684V22.1421H137.373L142.635 34.8661C142.038 36.2031 141.451 36.4691 140.648 36.4691C140 36.4691 139.318 36.2739 138.62 35.8887C138.553 35.8523 138.475 35.8463 138.405 35.8684C138.335 35.8933 138.276 35.946 138.245 36.0148L136.998 38.7739C136.939 38.9043 136.99 39.0573 137.115 39.1249C138.416 39.8359 139.591 40.1395 141.045 40.1395C143.762 40.1395 145.263 38.8632 146.588 35.4299L152.971 18.7963C153.004 18.7125 152.993 18.618 152.943 18.5437C152.893 18.4701 152.811 18.4257 152.721 18.4257H148.891C148.776 18.4257 148.673 18.4993 148.636 18.608L144.711 29.9105L140.413 18.6005C140.374 18.4953 140.274 18.4257 140.161 18.4257H133.875L133.876 18.4248ZM125.696 18.4085H122.016C121.867 18.4085 121.746 18.5305 121.746 18.6805V34.8684C121.746 35.0184 121.867 35.1404 122.016 35.1404H125.696C125.844 35.1404 125.966 35.0184 125.966 34.8684V18.6816C125.966 18.6459 125.959 18.6104 125.945 18.5773C125.932 18.5443 125.912 18.5143 125.887 18.4891C125.862 18.4637 125.832 18.4437 125.799 18.4301C125.766 18.4165 125.731 18.4095 125.696 18.4096L125.696 18.4085ZM123.877 11.0377C122.419 11.0377 121.236 12.2276 121.236 13.6976C121.236 15.1683 122.419 16.3597 123.877 16.3597C125.334 16.3597 126.516 15.1683 126.516 13.6976C126.516 12.2279 125.334 11.0377 123.878 11.0377H123.877ZM156.114 23.6132C154.657 23.6132 153.523 22.4339 153.523 21.0019C153.523 19.5697 154.671 18.3769 156.127 18.3769C157.583 18.3769 158.716 19.556 158.716 20.9869C158.716 22.4191 157.568 23.6132 156.112 23.6132H156.114ZM156.127 18.6367C154.801 18.6367 153.797 19.6999 153.797 21.0019C153.797 22.3032 154.794 23.3521 156.114 23.3521C157.44 23.3521 158.445 22.2897 158.445 20.9869C158.445 19.6856 157.448 18.6367 156.128 18.6367H156.127ZM156.702 21.2555L157.433 22.2895H156.816L156.157 21.3409H155.59V22.2895H155.073V19.5485H156.286C156.916 19.5485 157.332 19.8744 157.332 20.4229C157.334 20.8723 157.076 21.1468 156.703 21.2555H156.702ZM156.264 20.0188H155.59V20.8857H156.264C156.6 20.8857 156.801 20.7199 156.801 20.4519C156.801 20.1699 156.599 20.0188 156.264 20.0188Z" fill="#B0B7C3"/>
</svg>
